<?xml version="1.0" encoding="UTF-8"?>
<svg version="1.1" xmlns="http://www.w3.org/2000/svg" width="756" height="698">
<path d="M0 0 C4.99877131 2.81748928 8.60533165 6.44099496 10.4375 11.9375 C10.53297232 13.33713151 10.57499359 14.74079638 10.58226013 16.1436615 C10.58915863 17.00024857 10.59605713 17.85683563 10.60316467 18.73937988 C10.60577805 19.67608521 10.60839142 20.61279053 10.61108398 21.57788086 C10.617771 22.56675797 10.62445801 23.55563507 10.63134766 24.57447815 C10.64540522 26.72377728 10.65729703 28.87309141 10.66729546 31.02241325 C10.68368905 34.42210721 10.7069256 37.82168986 10.73219299 41.22132874 C10.80301964 50.88797474 10.86314183 60.55466584 10.91430664 70.22143555 C10.94606925 76.13178174 10.98733637 82.04199952 11.03450203 87.9522419 C11.05053657 90.20690162 11.0628514 92.46159093 11.07140923 94.71629143 C11.08354113 97.8669021 11.10768174 101.01720987 11.13452148 104.16772461 C11.13511063 105.1024057 11.13569977 106.03708679 11.13630676 107.00009155 C11.15088425 108.28920189 11.15088425 108.28920189 11.16575623 109.60435486 C11.16998816 110.34895431 11.1742201 111.09355375 11.17858028 111.86071682 C11.47813624 114.26344142 12.19662846 115.86834949 13.4375 117.9375 C17.05383189 120.72035782 21.42390375 120.21561792 25.77929688 120.19287109 C26.61891968 120.19649155 27.45854248 120.200112 28.3236084 120.20384216 C30.14602065 120.21073107 31.96845352 120.21324255 33.7908783 120.21189499 C36.68466034 120.21092801 39.57807265 120.22389546 42.47180176 120.24087524 C50.69927038 120.28707446 58.92670302 120.31172004 67.15429688 120.31835938 C72.19060557 120.32340295 77.22653187 120.34780319 82.26271057 120.38368607 C84.17303663 120.39342502 86.08341572 120.39584859 87.99375916 120.39051437 C110.13521429 120.3316298 110.13521429 120.3316298 120.09680176 126.61483765 C122.38084973 128.26805837 122.38084973 128.26805837 124.93359375 127.25390625 C126.17302734 126.60228516 126.17302734 126.60228516 127.4375 125.9375 C129.12446127 125.24867914 130.8119603 124.56117379 132.5 123.875 C133.33660156 123.53339844 134.17320312 123.19179688 135.03515625 122.83984375 C140.02051366 120.96729487 144.61204264 120.78116326 149.90625 120.76391602 C150.75872314 120.757229 151.61119629 120.75054199 152.48950195 120.74365234 C154.33812034 120.72961902 156.18675587 120.71771951 158.03540039 120.70770454 C160.96051291 120.69127701 163.88549785 120.6680398 166.81054688 120.64280701 C175.12623736 120.57206905 183.44197885 120.51184693 191.7578125 120.46069336 C196.84587424 120.42891803 201.93378718 120.38765071 207.02172852 120.34049797 C208.96099171 120.3244747 210.90028913 120.31215464 212.83959961 120.30359077 C215.54947041 120.29144853 218.2589905 120.26730465 220.96875 120.24047852 C221.77094971 120.23988937 222.57314941 120.23930023 223.3996582 120.23869324 C228.77005319 120.24302546 228.77005319 120.24302546 233.4375 117.9375 C235.15562422 115.07173881 235.68845371 112.9474885 235.69578552 109.62454224 C235.70602753 108.34193512 235.70602753 108.34193512 235.71647644 107.03341675 C235.71392349 106.10344879 235.71137054 105.17348083 235.70874023 104.21533203 C235.71396698 103.22952148 235.71919373 102.24371094 235.72457886 101.22802734 C235.73481783 99.08803016 235.74059908 96.94800808 235.74246025 94.80798721 C235.74612088 91.42020268 235.76283956 88.03271166 235.78321838 84.64498901 C235.83865937 75.01321875 235.86931806 65.38140513 235.89379883 55.74951172 C235.90967752 49.85742718 235.9399006 43.96555078 235.97856331 38.07357407 C235.99021114 35.82893967 235.99614364 33.58426804 235.99624443 31.33960342 C235.99643658 28.1990004 236.01471067 25.05897094 236.03686523 21.91845703 C236.03228806 20.99253754 236.02771088 20.06661804 236.022995 19.11264038 C236.09042242 13.09724138 236.94065304 8.70083179 241.12109375 4.07421875 C241.69988281 3.59597656 242.27867187 3.11773437 242.875 2.625 C243.45121094 2.13386719 244.02742188 1.64273437 244.62109375 1.13671875 C248.57055268 -1.47077349 252.81846555 -1.44741954 257.4375 -1.0625 C263.61179957 1.06099742 267.42792365 4.15720488 270.52189636 9.97740173 C271.85156114 14.27613783 271.72400801 18.38624715 271.7121582 22.86157227 C271.7198246 24.3553112 271.7198246 24.3553112 271.72764587 25.87922668 C271.74154218 29.17084777 271.74058418 32.46225931 271.73828125 35.75390625 C271.74216989 38.04971901 271.74650491 40.34553105 271.75126648 42.64134216 C271.75873006 47.4572889 271.75843765 52.27316236 271.75317383 57.08911133 C271.74739773 63.23660383 271.76426465 69.38379323 271.7875185 75.53123569 C271.80231495 80.27642041 271.80311919 85.02153328 271.80000877 89.76673698 C271.80051963 92.03156062 271.80571282 94.29638852 271.81582069 96.56118965 C271.87769742 112.37337507 271.71393539 125.50780801 262.4375 138.9375 C261.86 139.824375 261.2825 140.71125 260.6875 141.625 C251.77500113 150.78506828 240.22594257 155.64324335 227.51596069 156.06880188 C226.01635635 156.07717715 224.51671722 156.0803795 223.01708984 156.0793457 C222.19358536 156.08282013 221.37008087 156.08629456 220.5216217 156.08987427 C218.74233034 156.09719807 216.96303005 156.10256133 215.18372726 156.10616493 C212.36765969 156.11335989 209.55176337 156.12904612 206.73574829 156.14750671 C198.73238366 156.19985502 190.72911839 156.24799955 182.72558594 156.26342773 C177.82313565 156.27349595 172.92112512 156.30278062 168.01884842 156.34474754 C166.1521601 156.35706868 164.28540975 156.36217677 162.4186821 156.35994911 C159.81168138 156.35760198 157.20595042 156.3797131 154.59912109 156.4074707 C153.82811569 156.40086929 153.05711029 156.39426788 152.26274109 156.38746643 C148.79001859 156.44827376 146.8049024 156.66371563 143.98403931 158.76579285 C141.88683458 161.71076456 141.51393837 164.32156086 140.9375 167.875 C139.92140861 174.12529903 138.22570036 177.64133499 133.3125 181.6875 C127.72008201 184.11898608 122.4684535 184.53679775 116.625 182.8125 C111.92191215 180.04597774 108.56256675 176.99244601 106.4375 171.9375 C105.92352984 169.16369277 105.55652309 166.39121073 105.1953125 163.59375 C104.22816902 160.20376255 103.24994234 159.07349389 100.4375 156.9375 C97.62308871 156.54975649 95.19906068 156.40315717 92.38696289 156.43920898 C91.57820709 156.43369019 90.76945129 156.42817139 89.93618774 156.42248535 C88.18090808 156.41316628 86.42556081 156.41305946 84.67027473 156.42107964 C81.88103327 156.43372579 79.09277944 156.42240093 76.30357361 156.40504456 C71.37493088 156.37830884 66.44652966 156.37274916 61.51782227 156.37414551 C53.66194877 156.37636989 45.80637803 156.36190995 37.95062065 156.31855965 C35.22269797 156.30881711 32.49526107 156.31739413 29.76734924 156.32725525 C15.91120664 156.31144977 4.08230159 155.11737004 -7.5625 146.9375 C-8.449375 146.36 -9.33625 145.7825 -10.25 145.1875 C-19.34870118 136.33470967 -24.4686249 124.97696601 -24.70967102 112.32156372 C-24.72467788 110.49321895 -24.73426248 108.66482463 -24.73950195 106.83642578 C-24.74607315 105.83402863 -24.75264435 104.83163147 -24.75941467 103.79885864 C-24.77906831 100.49350908 -24.79079052 97.18820471 -24.80078125 93.8828125 C-24.80485678 92.75091366 -24.8089323 91.61901482 -24.81313133 90.45281601 C-24.83395488 84.46545344 -24.84827454 78.47811356 -24.85766602 72.49072266 C-24.86874273 66.31479526 -24.90316822 60.13922691 -24.94283772 53.96342659 C-24.9689986 49.20554949 -24.97735724 44.44775822 -24.98094749 39.68981552 C-24.98581213 37.41329387 -24.99742255 35.13677602 -25.01598549 32.86032486 C-25.04037246 29.67238151 -25.03941274 26.48537165 -25.0324707 23.29736328 C-25.04528076 22.36307495 -25.05809082 21.42878662 -25.07128906 20.46618652 C-25.02381639 14.4676929 -23.95947503 9.94915487 -20.5625 4.9375 C-14.46265597 -1.00593778 -8.19038858 -2.44274747 0 0 Z " fill="#B7343C" transform="translate(254.5625,339.0625)"/>
<path d="M0 0 C6.18399969 4.534067 6.7890905 9.91027747 7.953125 17.0859375 C9.00071681 20.87442686 9.72714937 22.03150939 12.859375 24.36328125 C15.708095 24.75096571 18.17101407 24.89754894 21.01757812 24.86157227 C21.83769379 24.86709106 22.65780945 24.87260986 23.5027771 24.8782959 C25.28261421 24.88761512 27.06251801 24.88772168 28.84236145 24.87970161 C31.66912951 24.86706002 34.49492246 24.8783756 37.32165527 24.89573669 C42.31479616 24.92247131 47.30769861 24.928032 52.30090332 24.92663574 C60.26372313 24.92441105 68.22624455 24.93882074 76.18894958 24.9822216 C78.95624779 24.99197816 81.72306877 24.9833804 84.49035645 24.973526 C99.86978373 24.99173546 113.42237956 26.9262391 125.234375 37.64453125 C135.72168342 48.73687669 138.03803082 61.59496289 138.109375 76.30078125 C138.1403125 77.88922852 138.1403125 77.88922852 138.171875 79.50976562 C138.20673959 86.49575802 137.92373532 91.8671247 133.140625 97.32421875 C132.5528125 97.79085937 131.965 98.2575 131.359375 98.73828125 C130.7715625 99.22039062 130.18375 99.7025 129.578125 100.19921875 C125.38194618 103.04117622 120.72101582 102.90696556 115.859375 102.36328125 C110.13234877 100.76053059 106.88987816 97.82545703 103.88525391 92.79296875 C101.9548278 88.22095528 102.15628185 83.50952925 102.171875 78.61328125 C102.15526582 76.57674038 102.13084299 74.54024444 102.09765625 72.50390625 C102.09805908 71.61219727 102.09846191 70.72048828 102.09887695 69.80175781 C101.83559249 67.1211409 101.37989006 65.58379228 99.859375 63.36328125 C96.11358467 60.73408788 92.01571925 61.0846585 87.62524414 61.10791016 C86.7969812 61.1042897 85.96871826 61.10066925 85.11535645 61.09693909 C83.31750145 61.09005028 81.51962557 61.08753869 79.72175789 61.08888626 C76.86550502 61.08985358 74.00962641 61.07688129 71.15342712 61.05990601 C63.03257214 61.01372081 54.91175327 60.98906752 46.79077148 60.98242188 C41.81929491 60.97737317 36.84820478 60.95294627 31.87685966 60.91709518 C29.99248017 60.90736676 28.10804702 60.90492677 26.22364998 60.91026688 C3.24350901 60.97228418 3.24350901 60.97228418 -6.81578064 54.69351196 C-9.10931497 53.04148527 -9.10931497 53.04148527 -11.890625 53.92578125 C-13.72237457 54.73597817 -15.55356549 55.54744983 -17.3828125 56.36328125 C-18.16914063 56.71390625 -18.95546875 57.06453125 -19.765625 57.42578125 C-20.50039063 57.76738281 -21.23515625 58.10898438 -21.9921875 58.4609375 C-26.81848035 60.4879805 -31.4316287 60.51999739 -36.609375 60.53686523 C-37.46184814 60.54355225 -38.31432129 60.55023926 -39.19262695 60.55712891 C-41.04124534 60.57116223 -42.88988087 60.58306174 -44.73852539 60.59307671 C-47.66363791 60.60950424 -50.58862285 60.63274145 -53.51367188 60.65797424 C-61.82936236 60.7287122 -70.14510385 60.78893432 -78.4609375 60.84008789 C-83.54899924 60.87186322 -88.63691218 60.91313054 -93.72485352 60.96028328 C-95.66411671 60.97630655 -97.60341413 60.98862661 -99.54272461 60.99719048 C-102.25259541 61.00933272 -104.9621155 61.0334766 -107.671875 61.06030273 C-108.47407471 61.06089188 -109.27627441 61.06148102 -110.1027832 61.06208801 C-115.43513099 61.11944205 -115.43513099 61.11944205 -120.140625 63.36328125 C-122.20833747 66.38290167 -122.38053446 68.89969456 -122.37890625 72.50390625 C-122.39501953 73.49261719 -122.41113281 74.48132813 -122.42773438 75.5 C-122.44453352 77.55983392 -122.44991954 79.61979553 -122.44335938 81.6796875 C-122.57820414 88.38712712 -123.53065936 93.28691032 -128.140625 98.36328125 C-132.81267297 101.80280017 -137.25395431 102.9817952 -143.0390625 102.68359375 C-148.73413732 101.81557119 -152.52768601 98.67873615 -156.140625 94.36328125 C-158.75243626 88.67553896 -158.48570421 82.87308773 -158.453125 76.73828125 C-158.44821045 75.66247803 -158.4432959 74.5866748 -158.43823242 73.47827148 C-158.23580554 59.7848718 -155.22382928 48.30829208 -145.859375 37.98828125 C-135.9200709 28.59112101 -124.0181222 25.21231627 -110.62841797 25.22143555 C-109.79515991 25.21796112 -108.96190186 25.21448669 -108.10339355 25.21090698 C-106.30282119 25.20358253 -104.50224 25.19821961 -102.70165634 25.19461632 C-99.85198467 25.18742217 -97.00248232 25.1717365 -94.15286255 25.15327454 C-86.05391662 25.1009226 -77.95506883 25.05278162 -69.85595703 25.03735352 C-64.89515444 25.02728569 -59.93478646 24.99800186 -54.97415543 24.95603371 C-53.08513801 24.94371189 -51.19605931 24.9386046 -49.30700302 24.94083214 C-46.66887485 24.94317908 -44.03200175 24.92106943 -41.39404297 24.89331055 C-40.61368683 24.89991196 -39.83333069 24.90651337 -39.02932739 24.91331482 C-35.53485974 24.85284135 -33.52037153 24.6456911 -30.67922974 22.53279114 C-28.59946821 19.60022302 -28.25464179 17.02559584 -27.703125 13.48828125 C-26.55271628 7.56398394 -25.78009237 4.26465154 -21.140625 0.36328125 C-13.62619373 -3.89017041 -7.46144403 -3.74613822 0 0 Z " fill="#B7343C" transform="translate(388.140625,181.63671875)"/>
<path d="M0 0 C7.40134179 4.54428888 14.19465519 10.06347558 21.0546875 15.375 C25.6103544 18.89227153 30.23797756 22.30492438 34.8828125 25.703125 C42.58190639 31.34402182 50.1885657 37.0970042 57.76074219 42.90698242 C62.13987762 46.25901896 66.54099067 49.57014851 71.0078125 52.8046875 C71.86955078 53.42988281 72.73128906 54.05507812 73.61914062 54.69921875 C75.24312483 55.87272715 76.8717386 57.03986722 78.50585938 58.19921875 C83.34546965 61.6980399 88.20767073 65.22499593 90.4453125 70.98046875 C90.957837 76.03097061 90.26354452 79.39292186 87.6328125 83.890625 C84.56074284 87.10233419 82.48986721 88.65688281 78.1953125 89.828125 C70.0052804 89.97180977 65.48114927 86.65101146 59.3828125 81.640625 C57.78169256 80.35979519 56.17877126 79.08121454 54.57421875 77.8046875 C53.7558252 77.15145508 52.93743164 76.49822266 52.09423828 75.82519531 C48.23810799 72.79444979 44.28361535 69.90395095 40.3203125 67.015625 C31.6052643 60.64279687 23.01426099 54.11586438 14.4375 47.55859375 C8.86413896 43.29796651 3.25763123 39.08303647 -2.3671875 34.890625 C-6.16925965 38.37884685 -8.94850882 42.36077038 -11.8671875 46.578125 C-12.9413381 48.11463098 -14.01555878 49.65108797 -15.08984375 51.1875 C-15.63527832 51.97060547 -16.18071289 52.75371094 -16.74267578 53.56054688 C-19.25107262 57.15840372 -21.77640553 60.74422447 -24.3046875 64.328125 C-25.04452881 65.37782471 -25.04452881 65.37782471 -25.79931641 66.44873047 C-29.40952665 71.56095636 -33.06785478 76.63685686 -36.7421875 81.703125 C-41.34841679 88.05490182 -45.88056742 94.4538406 -50.3671875 100.890625 C-55.98194582 108.94427445 -61.67571455 116.93508351 -67.4609375 124.8671875 C-69.2566599 127.33397974 -71.01094561 129.81792074 -72.7109375 132.3515625 C-78.9862188 141.54726317 -78.9862188 141.54726317 -85.3671875 142.890625 C-90.16043944 143.12608299 -93.97392394 142.59601922 -97.8046875 139.578125 C-101.08767625 136.13499046 -102.65662667 133.48461883 -102.8046875 128.703125 C-102.48984839 119.43785964 -95.67481402 112.50364527 -90.29370117 105.4543457 C-86.33427597 100.25099062 -82.59271983 94.93099974 -78.9296875 89.515625 C-72.59686095 80.16676144 -66.01451386 71.01743013 -59.3671875 61.890625 C-52.62194003 52.61104783 -45.92972443 43.30055865 -39.3671875 33.890625 C-34.71108901 27.22225509 -30.03812511 20.56689489 -25.3046875 13.953125 C-24.51868164 12.84420898 -24.51868164 12.84420898 -23.71679688 11.71289062 C-17.87184177 3.58439549 -10.99421772 -5.15240567 0 0 Z " fill="#B5353B" transform="translate(102.3671875,154.109375)"/>
<path d="M0 0 C6.23785603 2.80919613 9.27146341 6.41219511 13.0625 12 C13.61486328 12.78890625 14.16722656 13.5778125 14.73632812 14.390625 C16.50322542 16.91873901 18.25131455 19.45926575 20 22 C21.74512244 24.50152075 23.49557075 26.99925391 25.24633789 29.49682617 C26.4204956 31.17281656 27.59284484 32.85007531 28.76342773 34.52856445 C33.19132481 40.87404991 37.70119167 47.15607494 42.24389648 53.41967773 C48.40564272 61.92268117 54.44037865 70.51420197 60.47949219 79.10449219 C66.208888 87.25103586 71.97247268 95.36978145 77.8125 103.4375 C85.42558255 113.96367749 85.42558255 113.96367749 88.25 117.9375 C89.03117187 119.03384766 89.03117187 119.03384766 89.828125 120.15234375 C92.55791548 124.4563134 92.61506579 129.07104809 92 134 C89.99478391 137.86720247 87.88872822 140.94761566 84 143 C77.88115013 144.42773164 73.52397867 144.09007281 68 141 C65.69551405 138.84188674 63.96630483 136.41150571 62.1875 133.8125 C61.67888428 133.10270996 61.17026855 132.39291992 60.64624023 131.66162109 C59.07504712 129.45586556 57.5340309 127.2317228 56 125 C55.5369043 124.33178223 55.07380859 123.66356445 54.59667969 122.97509766 C52.79260306 120.37043763 50.99539295 117.76141374 49.21337891 115.14160156 C45.74930796 110.05108447 42.17972797 105.04515391 38.5625 100.0625 C31.79280234 90.73542763 25.14855826 81.32352676 18.52050781 71.89550781 C12.69544015 63.61292973 6.84417364 55.34963947 0.9375 47.125 C0.11487671 45.97366577 0.11487671 45.97366577 -0.72436523 44.79907227 C-1.23942627 44.08420654 -1.7544873 43.36934082 -2.28515625 42.6328125 C-2.73769775 42.00262207 -3.19023926 41.37243164 -3.65649414 40.72314453 C-4.99555771 39.00569756 -6.42792388 37.50427691 -8 36 C-8.66866089 36.5261792 -8.66866089 36.5261792 -9.35083008 37.06298828 C-18.68189809 44.39343921 -28.08896632 51.59361457 -37.66796875 58.59716797 C-43.77560235 63.07203084 -49.80189117 67.6458877 -55.8125 72.25 C-58.41084765 74.23099373 -61.01096608 76.20961353 -63.61279297 78.18603516 C-65.13440325 79.34225978 -66.65443279 80.50056974 -68.17236328 81.66162109 C-70.06293201 83.10137948 -71.96591756 84.52243106 -73.875 85.9375 C-74.90367187 86.70964844 -75.93234375 87.48179687 -76.9921875 88.27734375 C-81.54966247 90.88753396 -85.41689925 91.22218958 -90.5625 90.5 C-95.03218767 88.54959084 -97.53836791 86.19877045 -100 82 C-101.47117358 77.80838812 -101.1868274 74.70994411 -100.0625 70.4375 C-96.41472898 63.12961355 -87.76217158 58.218768 -81.3125 53.5625 C-74.30998842 48.45719337 -67.37909573 43.27038289 -60.5 38 C-51.54639166 31.14963795 -42.50387832 24.43128816 -33.40869141 17.77050781 C-30.84271409 15.88438704 -28.28583512 13.98640627 -25.73046875 12.0859375 C-24.86566895 11.44414551 -24.00086914 10.80235352 -23.10986328 10.14111328 C-21.45156853 8.9100273 -19.79490467 7.67674044 -18.14013672 6.44091797 C-17.39393066 5.88807129 -16.64772461 5.33522461 -15.87890625 4.765625 C-15.2247876 4.27868164 -14.57066895 3.79173828 -13.89672852 3.29003906 C-9.47441198 0.28224906 -5.37540462 -1.08057538 0 0 Z " fill="#B5353B" transform="translate(664,361)"/>
<path d="M0 0 C7.5660297 4.25263049 14.25766702 10.01526252 21.0546875 15.375 C25.69987505 19.02412154 30.43343394 22.53936806 35.203125 26.0234375 C42.88406916 31.6406672 50.46939735 37.37237244 58.01879883 43.16503906 C62.39788888 46.51694522 66.79889616 49.82802835 71.265625 53.0625 C72.12736328 53.68769531 72.98910156 54.31289063 73.87695312 54.95703125 C75.50093733 56.13053965 77.1295511 57.29767972 78.76367188 58.45703125 C83.60328215 61.9558524 88.46548323 65.48280843 90.703125 71.23828125 C91.2156495 76.28878311 90.52135702 79.65073436 87.890625 84.1484375 C84.81855534 87.36014669 82.74767971 88.91469531 78.453125 90.0859375 C70.2630929 90.22962227 65.73896177 86.90882396 59.640625 81.8984375 C58.03950506 80.61760769 56.43658376 79.33902704 54.83203125 78.0625 C54.0136377 77.40926758 53.19524414 76.75603516 52.35205078 76.08300781 C48.49592049 73.05226229 44.54142785 70.16176345 40.578125 67.2734375 C31.8630768 60.90060937 23.27207349 54.37367688 14.6953125 47.81640625 C9.12195146 43.55577901 3.51544373 39.34084897 -2.109375 35.1484375 C-5.91144715 38.63665935 -8.69069632 42.61858288 -11.609375 46.8359375 C-12.6835256 48.37244348 -13.75774628 49.90890047 -14.83203125 51.4453125 C-15.37746582 52.22841797 -15.92290039 53.01152344 -16.48486328 53.81835938 C-18.99325997 57.416216 -21.51856052 61.00206011 -24.046875 64.5859375 C-24.53865234 65.28356201 -25.03042969 65.98118652 -25.53710938 66.69995117 C-29.73074706 72.63753838 -33.98735713 78.52844673 -38.25146484 84.41552734 C-44.45375162 92.98835072 -50.54048926 101.64190738 -56.62109375 110.30126953 C-59.12492984 113.86633949 -61.63474194 117.42673844 -64.16015625 120.9765625 C-66.15119515 123.77676907 -68.10013926 126.60085462 -70.02734375 129.4453125 C-70.97089343 130.80500734 -71.91488551 132.16439532 -72.859375 133.5234375 C-73.2706665 134.14814941 -73.68195801 134.77286133 -74.10571289 135.41650391 C-77.29722133 139.94163617 -80.67914545 141.98048686 -86.109375 143.1484375 C-90.64562816 143.33554653 -93.86852434 142.67069421 -97.484375 139.8359375 C-100.83330103 136.40727513 -102.39780239 133.77510604 -102.546875 128.9609375 C-102.23203589 119.69567214 -95.41700152 112.76145777 -90.03588867 105.7121582 C-86.07646347 100.50880312 -82.33490733 95.18881224 -78.671875 89.7734375 C-72.33904845 80.42457394 -65.75670136 71.27524263 -59.109375 62.1484375 C-52.36412753 52.86886033 -45.67191193 43.55837115 -39.109375 34.1484375 C-34.45327651 27.48006759 -29.78031261 20.82470739 -25.046875 14.2109375 C-24.26086914 13.10202148 -24.26086914 13.10202148 -23.45898438 11.97070312 C-17.61137849 3.83852158 -11.06900564 -4.46859857 0 0 Z " fill="#B5353B" transform="translate(102.109375,361.8515625)"/>
<path d="M0 0 C6.23785603 2.80919613 9.27146341 6.41219511 13.0625 12 C13.61486328 12.78890625 14.16722656 13.5778125 14.73632812 14.390625 C16.50322542 16.91873901 18.25131455 19.45926575 20 22 C21.74512244 24.50152075 23.49557075 26.99925391 25.24633789 29.49682617 C26.4204956 31.17281656 27.59284484 32.85007531 28.76342773 34.52856445 C33.19132481 40.87404991 37.70119167 47.15607494 42.24389648 53.41967773 C48.40564272 61.92268117 54.44037865 70.51420197 60.47949219 79.10449219 C66.208888 87.25103586 71.97247268 95.36978145 77.8125 103.4375 C85.42558255 113.96367749 85.42558255 113.96367749 88.25 117.9375 C89.03117187 119.03384766 89.03117187 119.03384766 89.828125 120.15234375 C92.55791548 124.4563134 92.61506579 129.07104809 92 134 C89.99858387 137.85987396 87.9055175 140.99446399 84 143 C78.20493765 144.5836012 74.28745285 144.21638814 68.99414062 141.38500977 C65.42645559 138.90711099 63.26046179 135.57511069 60.875 132 C60.32714844 131.21109375 59.77929688 130.4221875 59.21484375 129.609375 C58.05362382 127.93469048 56.89978958 126.25486359 55.75292969 124.5703125 C53.45026969 121.19393305 51.10373385 117.84927514 48.75634766 114.50390625 C47.5792628 112.82581585 46.40447982 111.1461086 45.23193359 109.46484375 C41.37515734 103.93654857 37.4606204 98.45428503 33.5 93 C28.33272465 85.8839955 23.27388443 78.69780773 18.24584961 71.48291016 C13.70712939 64.98165415 9.08609609 58.54369884 4.4309082 52.12548828 C0.56220665 46.7896398 -3.24598418 41.41730129 -7 36 C-13.02568118 39.90114092 -18.75448047 44.03854119 -24.375 48.5 C-31.37188295 53.99896077 -38.46842972 59.33430554 -45.65258789 64.58544922 C-52.83559889 69.84792818 -59.91503527 75.24121689 -66.97192383 80.67138672 C-80.86963218 91.33164501 -80.86963218 91.33164501 -88 91 C-93.6914252 89.36009782 -96.80231809 86.98462179 -100 82 C-101.53109336 77.35001277 -101.42518325 73.16747794 -99.19677734 68.703125 C-94.80941079 62.45949605 -87.42886834 57.97814347 -81.3125 53.5625 C-74.30998842 48.45719337 -67.37909573 43.27038289 -60.5 38 C-51.54639166 31.14963795 -42.50387832 24.43128816 -33.40869141 17.77050781 C-30.84271409 15.88438704 -28.28583512 13.98640627 -25.73046875 12.0859375 C-24.86566895 11.44414551 -24.00086914 10.80235352 -23.10986328 10.14111328 C-21.45156853 8.9100273 -19.79490467 7.67674044 -18.14013672 6.44091797 C-17.39393066 5.88807129 -16.64772461 5.33522461 -15.87890625 4.765625 C-15.2247876 4.27868164 -14.57066895 3.79173828 -13.89672852 3.29003906 C-9.47441198 0.28224906 -5.37540462 -1.08057538 0 0 Z " fill="#B5353B" transform="translate(664,153)"/>
<path d="M0 0 C1.00865112 -0.00960754 2.01730225 -0.01921509 3.05651855 -0.02911377 C4.15226196 -0.03336365 5.24800537 -0.03761353 6.37695312 -0.04199219 C7.50460083 -0.04769226 8.63224854 -0.05339233 9.79406738 -0.05926514 C12.18822285 -0.06872869 14.58239142 -0.07525447 16.9765625 -0.07910156 C20.61547156 -0.08875384 24.25380301 -0.11974285 27.89257812 -0.15136719 C30.22069978 -0.15790258 32.54882547 -0.16315094 34.87695312 -0.16699219 C36.49627747 -0.18551239 36.49627747 -0.18551239 38.14831543 -0.20440674 C48.0299014 -0.17572261 57.38037053 1.69688972 65.15820312 8.16113281 C70.93757918 14.68808985 71.75658999 20.79776335 71.58007812 29.27441406 C70.81544126 36.3189852 67.20562808 41.3713842 62.15820312 46.16113281 C63.02445312 46.67675781 63.89070313 47.19238281 64.78320312 47.72363281 C70.65449672 51.6610169 74.30760803 56.31646603 76.15820312 63.16113281 C77.19700682 71.77773608 76.43486962 79.09142431 71.15820312 86.16113281 C63.56941257 93.94789182 53.20811126 96.11394225 42.67529297 96.33813477 C40.48997737 96.36490586 38.30457231 96.38494577 36.11914062 96.39941406 C34.96072662 96.40748581 33.80231262 96.41555756 32.60879517 96.4238739 C30.16629516 96.43767072 27.72377624 96.44841244 25.28125 96.45629883 C22.77891408 96.46787164 20.27660384 96.48840577 17.77441406 96.51782227 C14.15998553 96.56030865 10.5462872 96.57663704 6.93164062 96.58691406 C5.81179779 96.60442215 4.69195496 96.62193024 3.53817749 96.63996887 C2.49674591 96.6370433 1.45531433 96.63411774 0.38232422 96.63110352 C-0.53223541 96.63696976 -1.44679504 96.642836 -2.3890686 96.64888 C-5.60530015 96.00930328 -6.78030461 94.64969119 -8.84179688 92.16113281 C-10.40110495 89.04251666 -9.99796173 85.72635622 -10.00292969 82.30249023 C-10.00789459 81.49092972 -10.0128595 80.6793692 -10.01797485 79.84321594 C-10.03261249 77.1510026 -10.0394015 74.4588482 -10.04492188 71.76660156 C-10.05067248 69.89813739 -10.05643022 68.02967324 -10.06219482 66.16120911 C-10.07270969 62.23955001 -10.07854902 58.31791145 -10.08203125 54.39624023 C-10.08751376 49.37233648 -10.11153452 44.34870406 -10.1400032 39.32488537 C-10.15863309 35.46355906 -10.16383539 31.60229801 -10.16536713 27.74093056 C-10.16839393 25.88897533 -10.17642341 24.03702126 -10.18955231 22.18511009 C-10.20661844 19.59251702 -10.20473115 17.00058554 -10.19824219 14.40795898 C-10.20745697 13.64361542 -10.21667175 12.87927185 -10.22616577 12.09176636 C-10.19105336 7.61048934 -9.62675684 4.71821681 -6.84179688 1.16113281 C-4.38399876 -0.06776624 -2.7485232 0.02110609 0 0 Z M14.15820312 20.16113281 C11.64118431 24.3436042 11.92311547 28.73562948 12.03320312 33.47363281 C12.04222656 34.21419922 12.05125 34.95476563 12.06054688 35.71777344 C12.08396099 37.53236749 12.11982697 39.34679352 12.15820312 41.16113281 C13.14820313 40.83113281 14.13820313 40.50113281 15.15820312 40.16113281 C16.84853886 40.04724494 18.54248023 39.98312957 20.23632812 39.95019531 C21.23277344 39.92183594 22.22921875 39.89347656 23.25585938 39.86425781 C25.34162617 39.81256595 27.42758807 39.76818138 29.51367188 39.73144531 C36.22095858 39.52427043 41.69545638 39.0467551 47.03320312 34.59863281 C49.48699776 31.46322856 49.61086333 29.08418789 49.15820312 25.16113281 C46.53032103 20.89082441 45.32598682 19.53036774 40.51367188 18.00878906 C36.15057556 17.03400171 31.92877371 16.82871293 27.47070312 16.84863281 C26.73787109 16.83251953 26.00503906 16.81640625 25.25 16.79980469 C20.71742248 16.7957176 17.65126964 17.18651773 14.15820312 20.16113281 Z M12.15820312 54.16113281 C12.0767537 56.87008048 12.01749699 59.57654545 11.97070312 62.28613281 C11.94556641 63.04667969 11.92042969 63.80722656 11.89453125 64.59082031 C11.83059733 69.53504331 12.40300807 72.8782388 15.15820312 77.16113281 C19.57350578 79.36878414 25.55988427 78.39103615 30.40820312 78.41113281 C31.63667969 78.43175781 32.86515625 78.45238281 34.13085938 78.47363281 C35.32066406 78.47878906 36.51046875 78.48394531 37.73632812 78.48925781 C39.36683105 78.50327637 39.36683105 78.50327637 41.03027344 78.51757812 C45.3433304 78.02608084 48.5787357 76.36994298 52.00585938 73.74707031 C54.28866953 70.60530448 53.73455165 66.84587789 53.15820312 63.16113281 C51.27565961 59.75807338 50.02095856 58.50969987 46.42260742 57.0559082 C43.01378898 56.1215488 40.08148576 55.8609922 36.55273438 55.78222656 C35.32232422 55.74806641 34.09191406 55.71390625 32.82421875 55.67871094 C30.91672852 55.63907227 30.91672852 55.63907227 28.97070312 55.59863281 C26.43545044 55.53878506 23.90028314 55.47516534 21.36523438 55.40722656 C20.24608643 55.38329834 19.12693848 55.35937012 17.97387695 55.3347168 C15.15820312 55.16113281 15.15820312 55.16113281 12.15820312 54.16113281 Z " fill="#FFFFFF" transform="translate(409.841796875,599.8388671875)"/>
<path d="M0 0 C1.1034375 -0.00128906 2.206875 -0.00257813 3.34375 -0.00390625 C9.49795293 1.10049898 12.43611531 5.50369668 16 10.3125 C19.87121999 15.46796189 23.8534129 20.51148883 27.9375 25.5 C32.14762056 30.65403541 36.32567842 35.82959753 40.4375 41.0625 C40.861521 41.60124756 41.28554199 42.13999512 41.72241211 42.69506836 C44.07048904 45.6927999 46.37609255 48.71947076 48.65844727 51.76757812 C49.45944603 52.83691589 49.45944603 52.83691589 50.27662659 53.92785645 C50.68033981 54.46728882 51.08405304 55.00672119 51.5 55.5625 C51.50364563 54.93245056 51.50729126 54.30240112 51.51104736 53.65325928 C51.55283712 47.09935536 51.62215799 40.54615405 51.70751953 33.99267578 C51.73575635 31.54645818 51.75695731 29.10014888 51.77099609 26.65380859 C51.79238731 23.13851886 51.83902038 19.62433488 51.890625 16.109375 C51.89246796 14.4669986 51.89246796 14.4669986 51.89434814 12.79144287 C51.91406677 11.77068665 51.9337854 10.74993042 51.95410156 9.69824219 C51.96742523 8.35255157 51.96742523 8.35255157 51.98101807 6.97967529 C52.66739868 3.7828352 53.97018816 2.57319253 56.5 0.5625 C59.55859375 -0.00390625 59.55859375 -0.00390625 62.9375 0 C64.04996094 -0.02191406 65.16242188 -0.04382813 66.30859375 -0.06640625 C70.55858383 0.7711071 71.83716705 2.17117844 74.5 5.5625 C74.98476306 8.52240174 75.16615831 10.90102946 75.11523438 13.85351562 C75.12078339 14.67526779 75.1263324 15.49701996 75.13204956 16.34367371 C75.14383416 19.05263077 75.11958376 21.75991061 75.09375 24.46875 C75.0920385 26.3553459 75.09210498 28.24194419 75.09387207 30.12854004 C75.0922195 34.07957762 75.07353317 38.03004735 75.04199219 41.98095703 C75.00231483 47.04185472 74.99794735 52.10200882 75.00545502 57.16303253 C75.00852663 61.05786941 74.99639736 64.95253956 74.97932434 68.84733582 C74.9723001 70.71322076 74.96916911 72.57912461 74.97001648 74.44502258 C74.96821589 77.05418964 74.94681216 79.6624708 74.91992188 82.27148438 C74.92285248 83.04046555 74.92578308 83.80944672 74.92880249 84.60173035 C74.85767426 89.081641 74.282724 92.00425927 71.5 95.5625 C68.70627174 96.95936413 66.30320908 96.84575772 63.1875 96.9375 C62.05699219 96.98648438 60.92648437 97.03546875 59.76171875 97.0859375 C55.41871639 96.38897664 54.31196437 94.91133393 51.5 91.5625 C50.99782959 90.97533203 50.49565918 90.38816406 49.97827148 89.78320312 C48.25273615 87.74960061 46.56118512 85.69132797 44.875 83.625 C44.25890869 82.87355713 43.64281738 82.12211426 43.00805664 81.34790039 C38.81982804 76.22329464 34.70134243 71.04840703 30.63452148 65.82714844 C26.41573534 60.42024616 22.08647854 55.10545235 17.73803711 49.80249023 C17.2147583 49.16255127 16.69147949 48.5226123 16.15234375 47.86328125 C15.68820068 47.29778564 15.22405762 46.73229004 14.74584961 46.1496582 C13.58928002 44.67623886 12.53902584 43.12103877 11.5 41.5625 C11.49857498 42.17780075 11.49714996 42.7931015 11.49568176 43.42704773 C11.47598484 49.83519993 11.4217112 56.24239958 11.34741211 62.65014648 C11.32422486 65.04102747 11.30983472 67.4320107 11.30444336 69.82299805 C11.29515962 73.2615537 11.25417832 76.69849944 11.20703125 80.13671875 C11.21293022 81.73854256 11.21293022 81.73854256 11.21894836 83.37272644 C11.0733073 90.79198305 11.0733073 90.79198305 8.1394043 94.73510742 C5.01197332 96.90038546 3.28035447 97.23571881 -0.5 97.1875 C-1.510625 97.20039062 -2.52125 97.21328125 -3.5625 97.2265625 C-7.60146751 96.31349804 -8.9418344 94.79968303 -11.5 91.5625 C-11.99475984 88.57601022 -12.18574168 86.16108325 -12.14697266 83.1796875 C-12.15573425 82.34818176 -12.16449585 81.51667603 -12.17352295 80.65997314 C-12.19548239 77.9186138 -12.18097711 75.17887498 -12.1640625 72.4375 C-12.16743164 70.52847993 -12.17228508 68.61946195 -12.17855835 66.71044922 C-12.18592498 62.71235705 -12.17523094 58.71482398 -12.15185547 54.71679688 C-12.12336778 49.59511819 -12.13977288 44.47474953 -12.16971779 39.3531189 C-12.18779644 35.41192781 -12.18203014 31.47104668 -12.16907883 27.52984619 C-12.16574638 25.64162033 -12.16982622 23.7533662 -12.18147659 21.86517334 C-12.19419484 19.22446295 -12.17479623 16.5858657 -12.14697266 13.9453125 C-12.15709381 13.16698059 -12.16721497 12.38864868 -12.17764282 11.58673096 C-12.09982432 7.59475296 -11.65159097 5.7555894 -9.15682983 2.57788086 C-5.87602294 0.0891722 -4.08213021 -0.08107034 0 0 Z " fill="#FFFFFF" transform="translate(267.5,599.4375)"/>
<path d="M0 0 C2.31127184 2.00059172 3.56732292 3.9249926 4.91796875 6.66015625 C5.04971111 10.28307104 4.79584763 12.56340894 2.4921875 15.44140625 C-0.34351147 18.10734054 -2.00855888 19.53232733 -5.96875 20.00390625 C-9.54932845 19.60856007 -11.62883054 18.56524118 -14.70703125 16.72265625 C-22.51384846 12.09760908 -30.11578699 11.36382569 -39.06640625 13.30859375 C-46.39778084 15.67812642 -51.55227727 19.14992209 -55.359375 25.9375 C-59.54012048 34.87923678 -60.25967199 44.018352 -57.14453125 53.51953125 C-53.49599076 61.44070469 -48.7580499 65.79675769 -40.70703125 69.03515625 C-33.31522176 71.4420261 -27.74269332 71.23281314 -20.30078125 69.1328125 C-19.32044922 68.85832275 -18.34011719 68.58383301 -17.33007812 68.30102539 C-16.21729492 67.98379517 -16.21729492 67.98379517 -15.08203125 67.66015625 C-15.07792236 66.98960205 -15.07381348 66.31904785 -15.06958008 65.62817383 C-15.03658482 62.57545234 -14.96593505 59.52471095 -14.89453125 56.47265625 C-14.88583008 54.89000977 -14.88583008 54.89000977 -14.87695312 53.27539062 C-14.65605091 45.49472385 -14.65605091 45.49472385 -11.87890625 41.45703125 C-7.35178596 38.54854615 -3.2792668 38.78727694 1.91796875 39.66015625 C4.5965912 41.44590455 5.54292885 42.45020416 6.48461914 45.48828125 C8.77503185 56.96744262 8.59723186 70.34909095 2.62109375 80.55078125 C-3.23053015 87.79820535 -14.2102171 90.06382078 -23.12890625 91.30859375 C-39.14386247 92.73284875 -53.83489605 89.83934549 -66.67578125 79.58984375 C-75.90089419 71.01048872 -81.86609515 59.17153661 -82.515625 46.51171875 C-82.53895285 44.76968695 -82.53984787 43.02722577 -82.51953125 41.28515625 C-82.51195801 40.36831055 -82.50438477 39.45146484 -82.49658203 38.50683594 C-82.14004734 23.79262305 -76.14520096 12.81851117 -65.62109375 2.734375 C-47.42401028 -12.13124242 -19.56537627 -12.08944937 0 0 Z " fill="#FFFFFF" transform="translate(682.08203125,606.33984375)"/>
<path d="M0 0 C1.11503906 -0.00128906 2.23007813 -0.00257813 3.37890625 -0.00390625 C7.02679029 0.67162783 8.19771634 1.65868637 10.4375 4.5625 C11.44683174 7.59049523 11.57346794 9.65689959 11.59521484 12.82495117 C11.60547699 13.9000444 11.61573914 14.97513763 11.62631226 16.08280945 C11.63361359 17.24528702 11.64091492 18.40776459 11.6484375 19.60546875 C11.67651328 22.06576178 11.70517779 24.52604815 11.734375 26.98632812 C11.77558249 30.86596439 11.81246923 34.74547726 11.83886719 38.62524414 C11.86655035 42.36891416 11.91243141 46.11201823 11.9609375 49.85546875 C11.96419037 51.00782516 11.96744324 52.16018158 11.97079468 53.34745789 C12.11392361 63.38439228 12.11392361 63.38439228 16.74740601 72.07878113 C21.01491679 75.93767279 25.18362478 77.35380785 30.8125 77.875 C36.61111633 77.37511928 40.8085836 75.90812659 45.3125 72.1875 C49.90858323 66.50998542 50.55275121 60.12596951 50.5793457 52.98779297 C50.58638016 51.92003632 50.59341461 50.85227966 50.60066223 49.75216675 C50.60482651 48.6144986 50.60899078 47.47683044 50.61328125 46.3046875 C50.63646286 43.88150157 50.66057949 41.45832444 50.68554688 39.03515625 C50.72076346 35.22536165 50.75007571 31.41589523 50.76342773 27.60595703 C50.77885552 23.92180213 50.81901117 20.23859367 50.86328125 16.5546875 C50.86137283 15.41297089 50.85946442 14.27125427 50.85749817 13.09494019 C50.87398911 12.03348785 50.89048004 10.97203552 50.9074707 9.87841797 C50.91333694 8.94609344 50.91920319 8.01376892 50.92524719 7.05319214 C51.59483427 3.79750422 52.85825502 2.59808086 55.4375 0.5625 C58.49609375 -0.00390625 58.49609375 -0.00390625 61.875 0 C62.98746094 -0.02191406 64.09992188 -0.04382813 65.24609375 -0.06640625 C69.6489041 0.80122223 70.79914819 1.90104634 73.4375 5.5625 C74.17558689 9.73855766 74.08986745 13.86684783 74.03125 18.09765625 C74.03129028 19.32729599 74.03133057 20.55693573 74.03137207 21.82383728 C74.02601231 24.42712508 74.00841053 27.03041223 73.97949219 29.63354492 C73.93790727 33.58628811 73.93840395 37.53731085 73.9453125 41.49023438 C73.93480968 44.02605335 73.92186575 46.56186361 73.90625 49.09765625 C73.90594788 50.85143333 73.90594788 50.85143333 73.90563965 52.64064026 C73.73122392 64.96272511 71.44002167 77.64256721 62.96875 87.12109375 C52.86216639 96.63468904 40.93821733 98.5625 27.4375 98.5625 C16.45843553 97.73389136 6.51360657 94.22968978 -1.5625 86.5625 C-13.43442764 72.32693066 -11.83168919 54.85734362 -11.91259766 37.38330078 C-11.92922238 34.74909674 -11.95659659 32.11493897 -11.99462891 29.48095703 C-12.04926708 25.67196399 -12.07124423 21.86401902 -12.0859375 18.0546875 C-12.10860687 16.87752167 -12.13127625 15.70035583 -12.15463257 14.48751831 C-12.13352904 6.35579837 -12.13352904 6.35579837 -9.22924805 2.32104492 C-5.92917692 0.14486509 -3.93252315 -0.07746569 0 0 Z " fill="#FFFFFF" transform="translate(162.5625,599.4375)"/>
<path d="M0 0 C1.66869141 -0.03287109 1.66869141 -0.03287109 3.37109375 -0.06640625 C7.76064707 0.79860977 8.92303387 1.92369126 11.5625 5.5625 C12.29331729 9.62708766 12.21190873 13.64564909 12.1640625 17.765625 C12.17607193 19.55416901 12.17607193 19.55416901 12.18832397 21.37884521 C12.21140454 25.19040856 12.20193238 29.00090784 12.1875 32.8125 C12.18364458 36.60961157 12.18717714 40.40624916 12.20809937 44.20330811 C12.22012362 46.56399747 12.21762747 48.92481978 12.19839478 51.28546143 C12.22495375 59.1631615 13.23299344 65.59371105 17.25 72.4375 C21.33942811 76.19535286 26.04499498 77.6876917 31.5625 77.9375 C37.59397648 77.65310818 42.0647003 75.99517797 46.4375 71.8125 C51.22106093 64.49646564 50.83071024 57.29759366 50.80078125 48.8046875 C50.81619079 46.29817161 50.83249367 43.79166107 50.84960938 41.28515625 C50.86610513 37.35030253 50.87496125 33.41584274 50.86791992 29.48095703 C50.86530664 25.67174938 50.89336094 21.86373587 50.92578125 18.0546875 C50.91557449 16.87752167 50.90536774 15.70035583 50.89485168 14.48751831 C50.99254887 6.3519055 50.99254887 6.3519055 53.90283203 2.32104492 C57.19857759 0.14193208 59.19460616 -0.07742375 63.125 0 C64.24003906 -0.00128906 65.35507812 -0.00257813 66.50390625 -0.00390625 C70.24094948 0.68813879 71.23200881 1.60785326 73.5625 4.5625 C74.06370544 7.29202271 74.06370544 7.29202271 74.06420898 10.45751953 C74.07358994 11.64620636 74.08297089 12.83489319 74.09263611 14.05960083 C74.08140213 15.34188568 74.07016815 16.62417053 74.05859375 17.9453125 C74.05874889 19.28327513 74.0602403 20.62123821 74.06300354 21.959198 C74.06438759 24.76531827 74.05183972 27.57092753 74.02905273 30.37695312 C74.00083201 33.94763376 74.0033599 37.51745518 74.01614285 41.08819771 C74.02315498 43.85433074 74.01524565 46.62027086 74.00288582 49.38637924 C73.99625704 51.334815 74.00048624 53.28327814 74.00498962 55.23171997 C73.87540068 67.56926621 71.1741538 78.267363 62.7109375 87.60546875 C53.6575618 96.06370222 42.96860382 98.48434408 30.78125 98.59765625 C17.16047498 98.03012396 6.72397744 94.28725788 -2.6875 84.3125 C-8.18915016 77.58159831 -10.53664238 69.0261447 -10.61450195 60.48046875 C-10.62733719 59.25239502 -10.64017242 58.02432129 -10.65339661 56.7590332 C-10.66156214 55.42269292 -10.66900623 54.08634806 -10.67578125 52.75 C-10.67985678 52.07464203 -10.6839323 51.39928406 -10.68813133 50.70346069 C-10.70894294 47.13271393 -10.72326904 43.56200511 -10.73266602 39.99121094 C-10.74375563 36.30559173 -10.77819771 32.62057209 -10.81783772 28.93516541 C-10.84397399 26.0972786 -10.85235482 23.25953588 -10.85594749 20.42153931 C-10.86081669 19.06275353 -10.87244039 17.70397434 -10.89098549 16.3453064 C-10.91532133 14.4451959 -10.91199758 12.54479219 -10.9074707 10.64453125 C-10.91333694 9.56405518 -10.91920319 8.4835791 -10.92524719 7.37036133 C-9.83624892 1.10121987 -5.79292706 -0.00669703 0 0 Z " fill="#FFFFFF" transform="translate(511.4375,599.4375)"/>
<path d="M0 0 C1.22822479 -0.01283524 2.45644958 -0.02567047 3.72189331 -0.03889465 C5.06866046 -0.04706146 6.41543216 -0.05450531 7.76220703 -0.0612793 C8.43939915 -0.06535482 9.11659126 -0.06943035 9.81430435 -0.07362938 C13.3980097 -0.09448623 16.98167678 -0.10879005 20.56542969 -0.11816406 C24.26680065 -0.12923324 27.96757119 -0.16363897 31.66872978 -0.20333576 C34.51519896 -0.22947942 37.3615245 -0.23785378 40.20810318 -0.24144554 C41.57247095 -0.24631674 42.93683208 -0.2579461 44.30108261 -0.27648354 C46.21099122 -0.30082397 48.12119166 -0.29749518 50.03125 -0.29296875 C51.11775848 -0.29883499 52.20426697 -0.30470123 53.32369995 -0.31074524 C56.82267032 0.29415361 57.99151279 1.40802845 60.14501953 4.17700195 C60.67626953 6.61450195 60.67626953 6.61450195 60.64501953 9.17700195 C60.66048828 10.44543945 60.66048828 10.44543945 60.67626953 11.73950195 C59.94495759 15.09493322 58.88739889 16.10412619 56.14501953 18.17700195 C53.25139913 18.55933375 50.72676725 18.71150369 47.83642578 18.6809082 C46.63082253 18.69504005 46.63082253 18.69504005 45.40086365 18.7094574 C42.83615569 18.7380971 40.27237443 18.74118635 37.70751953 18.73950195 C35.14637046 18.74311361 32.58589583 18.75269607 30.02488708 18.78025818 C28.43339017 18.79699904 26.84167151 18.79995935 25.25013733 18.7872467 C20.25777687 18.8344843 16.74468386 19.57733763 13.14501953 23.17700195 C12.98815705 24.73648737 12.89425314 26.30242863 12.82861328 27.8684082 C12.78671875 28.81264648 12.74482422 29.75688477 12.70166016 30.72973633 C12.66234375 31.72295898 12.62302734 32.71618164 12.58251953 33.73950195 C12.53933594 34.7365918 12.49615234 35.73368164 12.45166016 36.76098633 C12.34521655 39.23284345 12.24320025 41.70480505 12.14501953 44.17700195 C13.13501953 43.68200195 13.13501953 43.68200195 14.14501953 43.17700195 C16.79698001 43.05379388 19.42166386 42.98862365 22.07470703 42.97387695 C23.25481857 42.96532684 23.25481857 42.96532684 24.45877075 42.956604 C26.12484389 42.94715163 27.79093575 42.94061908 29.45703125 42.93676758 C32.00309976 42.92706642 34.54835947 42.89604818 37.09423828 42.86450195 C38.71272307 42.85797136 40.33121363 42.85272111 41.94970703 42.84887695 C42.71024384 42.83653015 43.47078064 42.82418335 44.25436401 42.8114624 C47.49367856 42.82507815 49.76131582 42.96083406 52.61254883 44.56713867 C55.05984886 47.13803184 55.00907095 49.5270604 55.25439453 52.95043945 C55.10251408 56.04229153 54.12313671 57.83256678 52.14501953 60.17700195 C48.99048288 61.75427028 45.60761151 61.31890701 42.14501953 61.30981445 C41.35353516 61.31077118 40.56205078 61.31172791 39.74658203 61.31271362 C38.07210206 61.31339454 36.39761944 61.31154639 34.72314453 61.30737305 C32.15537607 61.30202353 29.58778253 61.30732099 27.02001953 61.3137207 C25.39501914 61.31305991 23.77001887 61.31177871 22.14501953 61.30981445 C21.37416016 61.31183868 20.60330078 61.31386292 19.80908203 61.31594849 C14.37494085 61.29196261 14.37494085 61.29196261 12.14501953 60.17700195 C12.16072998 61.05960693 12.17644043 61.94221191 12.19262695 62.8515625 C12.24389951 66.14101081 12.28143871 69.43003156 12.30981445 72.71972656 C12.32485713 74.14069337 12.34529657 75.56161408 12.37133789 76.98242188 C12.407923 79.03047081 12.4247905 81.07790345 12.43798828 83.1262207 C12.45369873 84.35687256 12.46940918 85.58752441 12.4855957 86.85546875 C12.11639113 90.45620586 11.31420116 92.31233739 9.14501953 95.17700195 C4.96914751 97.26493796 -0.30655425 96.61971544 -4.85498047 96.17700195 C-7.79819559 94.56111914 -9.30322064 93.68944247 -10.45819092 90.52352905 C-11.02888239 87.1485838 -11.01091329 83.79509945 -11.01611328 80.38256836 C-11.02107819 79.60158279 -11.02604309 78.82059723 -11.03115845 78.01594543 C-11.04574262 75.43680942 -11.05257541 72.8577349 -11.05810547 70.27856445 C-11.06385951 68.48261514 -11.06961721 66.68666584 -11.07537842 64.89071655 C-11.0858774 61.12644159 -11.09172745 57.36218793 -11.09521484 53.59790039 C-11.10070069 48.78041233 -11.12473528 43.96320673 -11.1531868 39.14580727 C-11.1718318 35.43628116 -11.17701974 31.72682288 -11.17855072 28.01725388 C-11.181573 26.24148386 -11.18958718 24.46571491 -11.2027359 22.689991 C-11.21983734 20.20318475 -11.21790646 17.7170662 -11.21142578 15.23022461 C-11.22064056 14.50067062 -11.22985535 13.77111664 -11.23934937 13.01945496 C-11.2013235 8.34904613 -10.3356489 5.13805101 -7.85498047 1.17700195 C-5.15449199 -0.17324229 -3.02358384 0.02743508 0 0 Z " fill="#FFFFFF" transform="translate(77.85498046875,599.822998046875)"/>
<path d="M0 0 C0.495 0.99 0.495 0.99 1 2 C-7.80880507 14.68999555 -16.63727107 27.36463726 -25.56445312 39.97167969 C-28.0465002 43.47862647 -30.52286191 46.98958499 -33 50.5 C-33.99738302 51.91276946 -34.99477885 53.32552988 -35.9921875 54.73828125 C-38.01930446 57.60992022 -40.04521664 60.48240417 -42.0703125 63.35546875 C-42.57667236 64.07323486 -43.08303223 64.79100098 -43.60473633 65.53051758 C-44.60874797 66.95503064 -45.61122062 68.3806298 -46.61206055 69.80737305 C-49.03431723 73.25308448 -51.48527244 76.66882099 -54.01171875 80.0390625 C-54.48399902 80.67626221 -54.9562793 81.31346191 -55.44287109 81.9699707 C-56.33234372 83.16655713 -57.23190893 84.35573076 -58.14306641 85.53588867 C-60.36874256 88.5223167 -60.36874256 88.5223167 -61.06640625 92.09375 C-59.51955829 94.85881155 -57.50170081 96.59694589 -55.125 98.6875 C-54.63177246 99.12465332 -54.13854492 99.56180664 -53.63037109 100.01220703 C-49.48138806 103.66020069 -45.18313354 107.11872709 -40.8828125 110.5859375 C-37.07122173 113.77775741 -33.46156819 117.16262901 -29.83422852 120.56030273 C-26.50880245 123.65750846 -23.11298325 126.59607067 -19.5625 129.4375 C-14.46309457 133.52749233 -9.69354855 137.90910507 -4.94555664 142.39624023 C-2.26898578 144.9206847 0.41025685 147.3526198 3.29296875 149.640625 C6.53270354 152.46428996 7.73878541 154.15934838 8.3359375 158.3671875 C8.44290234 165.23433016 7.06001557 168.71331661 2.3125 173.8125 C-1.93576883 175.99404346 -6.37127628 176.62206439 -11.046875 175.515625 C-20.3518706 171.57030687 -26.33950303 161.59026548 -32.484375 153.984375 C-35.91321122 149.91662519 -39.55387963 146.066862 -43.19995117 142.19458008 C-47.24225403 137.87826283 -50.99573491 133.39523766 -54.69140625 128.77734375 C-57.83171426 124.99940975 -61.18289349 121.43886099 -64.54125977 117.85546875 C-68.59396757 113.50552335 -72.36445105 108.99742434 -76.0625 104.33984375 C-77.96098821 101.96061687 -77.96098821 101.96061687 -80.19140625 99.875 C-82.67123635 97.30411783 -82.92782069 95.53678603 -83 92 C-80.93906407 87.9255839 -78.16860302 84.8204743 -75.0625 81.5 C-74.34114868 80.72450806 -74.34114868 80.72450806 -73.60522461 79.93334961 C-72.58743213 78.83927613 -71.56794728 77.74677487 -70.546875 76.65576172 C-68.53809693 74.50558292 -66.54415968 72.34195712 -64.55053711 70.17773438 C-63.04686369 68.5455271 -61.54129407 66.91508954 -60.03515625 65.28515625 C-57.02235525 62.02443591 -54.01104915 58.76233801 -51 55.5 C-50.00000676 54.41666043 -49.00000676 53.33332709 -48 52.25 C-47.505 51.71375 -47.01 51.1775 -46.5 50.625 C-42 45.75 -42 45.75 -40.49975586 44.12475586 C-39.50054262 43.04226129 -38.50135638 41.95974179 -37.50219727 40.87719727 C-34.99038165 38.15582492 -32.47808667 35.43489805 -29.96484375 32.71484375 C-19.92976955 21.85240112 -9.93808639 10.95129693 0 0 Z " fill="#B5353B" transform="translate(342,0)"/>
<path d="M0 0 C3.43895759 2.68406446 6.42769316 5.38299083 9.26171875 8.703125 C12.82192586 12.8202754 16.51117309 16.79531115 20.25 20.75 C25.65236904 26.48814337 31.01259914 32.25935409 36.328125 38.078125 C39.18877668 41.20644 42.0611165 44.3236595 44.9375 47.4375 C45.43588379 47.97713379 45.93426758 48.51676758 46.44775391 49.07275391 C47.9649951 50.71533028 49.48245786 52.35770166 51 54 C65.63277811 69.83572968 65.63277811 69.83572968 71.37890625 76.140625 C73.12074306 78.04081061 74.87858082 79.92645636 76.65234375 81.796875 C77.46832031 82.66828125 78.28429687 83.5396875 79.125 84.4375 C79.84945312 85.19933594 80.57390625 85.96117188 81.3203125 86.74609375 C83.23064579 89.30949446 83.83264185 90.81527278 84 94 C82.86140893 98.51139858 80.09637167 101.36717832 76.9375 104.625 C73.34079744 108.43292816 69.89355964 112.27565618 66.625 116.375 C62.57398276 121.41336194 58.22776443 126.1030476 53.79956055 130.8059082 C49.75745807 135.12209157 46.00411892 139.60494499 42.30859375 144.22265625 C39.16773142 148.00125713 35.81846055 151.56521083 32.4543457 155.14453125 C29.1667618 158.66532567 26.11346507 162.28415443 23.125 166.0625 C18.84144024 171.33634507 15.36792113 174.80429301 8.5 175.9375 C3.05416998 176.32191153 -0.22492285 174.53520186 -4.3125 171 C-6.92038145 167.90917754 -7.19825656 165.10184095 -7.3125 161.1875 C-7.34988281 160.35605469 -7.38726562 159.52460938 -7.42578125 158.66796875 C-6.49098708 152.81049702 -2.20454579 148.97693831 2.0625 145.1875 C3.03574219 144.32253906 4.00898438 143.45757812 5.01171875 142.56640625 C8.65363547 139.43864248 12.38027229 136.42701693 16.1171875 133.4140625 C19.92877827 130.22224259 23.53843181 126.83737099 27.16577148 123.43969727 C30.49119755 120.34249154 33.88701675 117.40392933 37.4375 114.5625 C42.56986599 110.44756339 47.36621702 106.033354 52.14233398 101.51586914 C55.32041655 98.5173755 58.53899704 95.6767682 62 93 C61.37679324 89.70352772 60.20103678 87.55425571 58.26171875 84.83203125 C57.69501465 84.02999268 57.12831055 83.2279541 56.54443359 82.40161133 C55.93164551 81.54720459 55.31885742 80.69279785 54.6875 79.8125 C54.05666504 78.92264404 53.42583008 78.03278809 52.77587891 77.1159668 C51.47753893 75.28521285 50.17674621 73.45619595 48.87353516 71.62890625 C46.68332645 68.55565015 44.50854308 65.47176973 42.33569336 62.38623047 C39.89487921 58.92103319 37.44699043 55.4608372 35 52 C26.83669928 40.45444818 18.70121731 28.88996947 10.60693359 17.29589844 C9.11501851 15.16433213 7.61561728 13.03829087 6.11328125 10.9140625 C5.28379412 9.73441722 4.45436242 8.55473296 3.625 7.375 C2.91601562 6.37210937 2.20703125 5.36921875 1.4765625 4.3359375 C0 2 0 2 0 0 Z " fill="#B5353B" transform="translate(411,0)"/>
<path d="M0 0 C5.09678219 0.88842992 10.18024118 1.8102598 15.234375 2.91796875 C59.52566397 12.51363683 104.26935576 10.69036516 148.45214844 1.50292969 C151.62528822 0.87657208 154.79196359 0.4066525 158 0 C158 4.29 158 8.58 158 13 C139.21823162 21.45716199 120.43662778 27.26695796 100 30 C98.61941406 30.19722656 98.61941406 30.19722656 97.2109375 30.3984375 C64.4907053 34.24176636 30.62565255 28.07386442 1 14 C0 13 0 13 -0.09765625 10.05859375 C-0.08605469 8.86363281 -0.07445312 7.66867187 -0.0625 6.4375 C-0.05347656 5.23996094 -0.04445313 4.04242188 -0.03515625 2.80859375 C-0.02355469 1.88175781 -0.01195312 0.95492188 0 0 Z " fill="#FFFFFF" transform="translate(299,383)"/>
<path d="M0 0 C3.82362952 2.15595613 5.8470156 4.34067307 7.75 8.375 C9.21172512 13.84631835 9.03543379 18.44801052 6.76953125 23.65234375 C4.47123374 27.53567403 0.78374064 29.62282061 -3.25 31.375 C-8.86361521 32.16090613 -13.49456407 31.61734268 -18.25 28.375 C-22.38798557 24.16973011 -24.40906972 21.03610361 -24.5625 15.125 C-24.50927779 10.03562631 -23.74801724 7.25118126 -20.25 3.375 C-14.16476427 -2.11655419 -7.52526279 -3.38988473 0 0 Z " fill="#FFFFFF" transform="translate(418.25,309.625)"/>
<path d="M0 0 C3.45201639 1.47721422 5.64961936 3.43794001 8.25 6.125 C8.95640625 6.84945313 9.6628125 7.57390625 10.390625 8.3203125 C11.18726563 9.15175781 11.18726563 9.15175781 12 10 C12.67095703 9.41992188 12.67095703 9.41992188 13.35546875 8.828125 C16.8521026 5.81609925 20.37407463 2.85678969 24 0 C25.98 2.31 27.96 4.62 30 7 C26.7 10.3 23.4 13.6 20 17 C23.22067635 20.80625387 26.40244797 24.54081536 30 28 C28.70700306 30.88437779 27.34058637 32.87219421 25 35 C21.54798361 33.52278578 19.35038064 31.56205999 16.75 28.875 C16.04359375 28.15054687 15.3371875 27.42609375 14.609375 26.6796875 C14.07828125 26.12539063 13.5471875 25.57109375 13 25 C9.19364503 28.20760251 5.45436433 31.40746109 2 35 C-0.88437779 33.70700306 -2.87219421 32.34058637 -5 30 C-3.52278578 26.54798361 -1.56205999 24.35038064 1.125 21.75 C1.84945313 21.04359375 2.57390625 20.3371875 3.3203125 19.609375 C3.87460937 19.07828125 4.42890625 18.5471875 5 18 C1.79239749 14.19364503 -1.40746109 10.45436433 -5 7 C-3.70700306 4.11562221 -2.34058637 2.12780579 0 0 Z " fill="#FFFFFF" transform="translate(332,307)"/>
</svg>
